<svg width="24" height="24" viewBox="0 0 24 24" fill="none" xmlns="http://www.w3.org/2000/svg">
<path d="M10.2107 4.39382C9.70499 3.86873 8.88503 3.86873 8.3793 4.39382C7.87357 4.91892 7.87357 5.77027 8.3793 6.29536L14.7893 12.9508C15.295 13.4759 16.115 13.4759 16.6207 12.9508C17.1264 12.4257 17.1264 11.5743 16.6207 11.0492L10.2107 4.39382Z" fill="#0D4CD3"/>
<path d="M8.3795 17.7046C7.87376 18.2297 7.87376 19.0811 8.3795 19.6062C8.88523 20.1313 9.70519 20.1313 10.2109 19.6062L16.6207 12.9508C17.1264 12.4257 17.1264 11.5743 16.6207 11.0492C16.115 10.5241 15.2952 10.5241 14.7895 11.0492L8.3795 17.7046Z" fill="#0D4CD3"/>
</svg>
