<svg width="160" height="161" viewBox="0 0 160 161" fill="none" xmlns="http://www.w3.org/2000/svg">
<path fill-rule="evenodd" clip-rule="evenodd" d="M61.1353 79.6814C67.5827 97.8651 74.7268 108.026 81.8965 109.087C91.4534 110.502 151.034 117.787 151.034 117.787C151.034 117.787 150.481 43.0559 117.193 2.30371C92.7206 19.7062 65.7958 40.0552 61.626 43.3384C56.3477 47.4945 54.6884 61.4973 61.1353 79.6814Z" fill="url('#paint0_linear_56_2729')"></path>
<path fill-rule="evenodd" clip-rule="evenodd" d="M80.0424 147.421C80.0424 147.421 76.507 147.643 71.4604 147.97C68.9009 148.136 65.9526 148.323 62.8802 148.534C57.0011 148.939 50.6681 149.407 45.7273 149.739C41.3365 150.034 38.0503 150.238 37.1769 150.233C36.4883 150.228 35.9127 150.591 35.5159 151.162C35.0444 151.84 34.8362 152.822 35.006 153.721C35.1481 154.472 35.547 155.161 36.2464 155.588C36.7733 155.91 37.4786 156.086 38.3929 155.995C39.7821 155.856 48.8159 154.817 60.0475 153.497C64.6146 152.961 69.546 152.38 74.4735 151.789C82.1531 150.868 89.825 149.933 96.106 149.166C104.583 148.13 110.524 147.394 110.524 147.394C110.65 147.379 110.74 147.266 110.725 147.14C110.71 147.015 110.597 146.925 110.471 146.94C110.471 146.94 104.521 147.596 96.033 148.544C89.7448 149.247 82.0639 150.104 74.3788 150.975C69.4474 151.534 64.5147 152.101 59.946 152.626C48.7191 153.916 39.6925 154.959 38.3037 155.096C37.6296 155.162 37.1057 155.054 36.7174 154.816C36.2472 154.529 35.9895 154.059 35.8944 153.554C35.7693 152.895 35.9123 152.174 36.2574 151.677C36.4789 151.358 36.7874 151.133 37.1718 151.135C38.7987 151.142 48.7456 150.454 58.6549 149.688C60.8292 149.52 63.0018 149.346 65.0839 149.172C73.281 148.484 80.0757 147.851 80.0757 147.851C80.1943 147.842 80.283 147.738 80.2737 147.62C80.2647 147.501 80.161 147.412 80.0424 147.421Z" fill="black"></path>
<path fill-rule="evenodd" clip-rule="evenodd" d="M110.67 143.862L110.971 142.05C110.992 141.929 111.07 141.826 111.181 141.774C111.291 141.722 111.42 141.726 111.527 141.786L115.179 143.835L122.124 143.89C122.309 143.891 122.467 144.022 122.503 144.203C122.539 144.384 122.443 144.566 122.273 144.638L118.988 146.027L123.78 149.635C123.92 149.74 123.969 149.927 123.898 150.087C123.828 150.247 123.657 150.338 123.485 150.306L115.371 148.745L110.848 150.965C110.758 151.011 110.649 151.002 110.568 150.941C110.486 150.88 110.446 150.779 110.465 150.679L111.107 147.487C111.129 147.37 111.242 147.293 111.359 147.314C111.476 147.336 111.553 147.449 111.531 147.566L111.08 150.241L115.173 148.095C115.238 148.061 115.313 148.05 115.386 148.064L122.047 149.279L117.987 146.242C117.876 146.159 117.818 146.023 117.835 145.885C117.852 145.748 117.94 145.63 118.068 145.576L120.242 144.653L115.074 144.61C115.007 144.61 114.943 144.592 114.886 144.56L111.617 142.703L111.327 144.297C111.296 144.477 111.135 144.605 110.952 144.595L105.803 144.227L106.948 144.765C107.063 144.816 107.114 144.952 107.063 145.067C107.01 145.182 106.875 145.233 106.76 145.181L104.249 144.099C104.129 144.045 104.065 143.913 104.096 143.785C104.127 143.657 104.245 143.57 104.377 143.578L110.67 143.862Z" fill="black"></path>
<path fill-rule="evenodd" clip-rule="evenodd" d="M81.9171 147.813L113.338 145.621C113.422 145.616 113.485 145.543 113.48 145.46C113.474 145.376 113.402 145.313 113.319 145.318L81.8787 147.225C81.7162 147.235 81.5933 147.376 81.6035 147.538C81.6142 147.7 81.7546 147.823 81.9171 147.813Z" fill="black"></path>
<path fill-rule="evenodd" clip-rule="evenodd" d="M37.6699 152.003C37.9541 152.253 38.1341 152.707 38.1584 153.191C38.181 153.646 38.0748 154.127 37.7817 154.507C37.7275 154.57 37.7352 154.666 37.7987 154.72C37.8627 154.775 37.9587 154.767 38.0129 154.703C38.4016 154.287 38.5808 153.73 38.6047 153.19C38.6329 152.551 38.4217 151.942 38.0791 151.579C37.9622 151.466 37.7753 151.47 37.6622 151.586C37.5496 151.703 37.553 151.89 37.6699 152.003Z" fill="black"></path>
<path fill-rule="evenodd" clip-rule="evenodd" d="M57.3321 149.863C57.6465 150.144 58.0284 150.72 58.1065 151.387C58.1671 151.909 58.0459 152.484 57.5714 153.02C57.5134 153.08 57.5155 153.177 57.5761 153.234C57.6367 153.292 57.7331 153.29 57.7907 153.23C58.3957 152.641 58.5775 151.971 58.5515 151.352C58.5169 150.536 58.0971 149.808 57.7412 149.439C57.6243 149.326 57.4375 149.329 57.3244 149.446C57.2118 149.563 57.2147 149.75 57.3321 149.863Z" fill="black"></path>
<path fill-rule="evenodd" clip-rule="evenodd" d="M105.316 146.171C105.629 146.288 105.73 146.606 105.745 146.933C105.765 147.365 105.647 147.821 105.522 148.03C105.474 148.1 105.492 148.194 105.561 148.241C105.631 148.289 105.725 148.271 105.772 148.201C105.982 147.93 106.23 147.251 106.191 146.659C106.161 146.221 105.964 145.842 105.555 145.632C105.406 145.566 105.232 145.633 105.165 145.782C105.1 145.93 105.167 146.104 105.316 146.171Z" fill="black"></path>
<path fill-rule="evenodd" clip-rule="evenodd" d="M80.525 41.6246C77.5648 36.8924 72.6334 31.6179 66.9578 28.9739C63.0654 27.1606 58.8256 26.585 54.628 28.2072C51.7869 29.311 49.3604 31.7122 47.4865 35.1281C45.4521 38.8376 44.0646 43.7498 43.4797 49.4586C42.4198 59.7967 43.9934 72.7623 49.0788 85.9258C53.7691 98.0461 60.0633 109.367 66.9549 116.933C73.761 124.404 81.1684 128.207 88.1734 125.721C92.787 124.068 95.4506 119.708 96.9086 114.657C99.6499 105.161 98.1672 93.2691 98.1672 93.2691C98.1523 93.1437 98.0384 93.0541 97.9134 93.069C97.7879 93.0835 97.6979 93.1975 97.7128 93.3229C97.7128 93.3229 99.0235 105.093 96.2169 114.454C94.7838 119.234 92.2856 123.397 87.8939 124.93C84.2182 126.224 80.4409 125.669 76.7067 123.73C73.6177 122.125 70.5606 119.579 67.6119 116.335C60.7917 108.831 54.5636 97.6109 49.9215 85.5998C44.8838 72.5878 43.3214 59.7711 44.3518 49.5473C44.9141 43.967 46.2491 39.1631 48.2212 35.5292C49.9774 32.2934 52.2331 29.9894 54.9113 28.9299C58.9024 27.3436 62.9497 27.8821 66.6831 29.5721C72.2903 32.1103 77.1944 37.2393 80.161 41.8554C80.225 41.9557 80.3582 41.9855 80.4584 41.9219C80.5591 41.8584 80.589 41.7248 80.525 41.6246Z" fill="black"></path>
<path fill-rule="evenodd" clip-rule="evenodd" d="M72.5809 48.9863C71.2416 46.4834 69.3271 44.4905 67.3282 43.3999C65.5725 42.4421 63.7485 42.1831 62.1668 42.8248C60.9832 43.3061 59.8428 44.4205 58.9024 46.1353C57.6164 48.4802 56.6876 51.9657 56.4862 56.429C56.2225 62.2586 57.2064 69.7713 60.2093 78.6029C63.2902 87.6256 66.8683 94.7407 70.3784 99.8057C73.0507 103.661 75.687 106.339 78.0294 107.784C79.7941 108.872 81.4078 109.267 82.7565 108.995C84.8868 108.558 86.2274 106.763 87.0236 104.566C88.4469 100.639 88.1606 95.4759 88.1606 95.4759C88.1551 95.35 88.0484 95.2519 87.9221 95.2574C87.7958 95.263 87.6981 95.3701 87.7037 95.4959C87.7037 95.4959 87.8658 100.534 86.3981 104.333C85.654 106.259 84.4968 107.877 82.6067 108.228C81.4176 108.453 80.0173 108.041 78.4727 107.071C76.2157 105.654 73.6838 103.044 71.1051 99.3035C67.6435 94.2829 64.1052 87.2425 61.0639 78.3115C58.0896 69.6126 57.1198 62.2121 57.3498 56.4662C57.5226 52.1551 58.3725 48.784 59.5851 46.5044C60.4072 44.9577 61.3835 43.9192 62.436 43.4699C63.8355 42.8704 65.462 43.1094 67.0453 43.9311C68.9875 44.9389 70.8623 46.8179 72.2029 49.1936C72.2605 49.2982 72.3915 49.3361 72.4956 49.279C72.6001 49.2214 72.6381 49.0904 72.5809 48.9863Z" fill="black"></path>
<path fill-rule="evenodd" clip-rule="evenodd" d="M79.6633 61.7994C79.8139 62.1723 79.9645 62.5529 80.1224 62.9408C80.2743 63.3124 80.4283 63.6913 80.5896 64.077C80.7291 64.4106 80.8746 64.7486 81.0205 65.0937C81.341 65.8523 81.6682 66.6442 81.9942 67.4767C82.4166 68.5549 82.8283 69.7047 83.246 70.9318C83.3245 71.1614 83.4048 71.393 83.4867 71.6269C83.6719 72.1546 83.8643 72.6927 84.0486 73.2512C84.0657 73.3118 84.1288 73.3472 84.1898 73.3301C84.2504 73.3135 84.2858 73.2503 84.2692 73.1893C84.1361 72.6137 84.0038 72.0544 83.8557 71.5121C83.7905 71.271 83.7218 71.0342 83.6497 70.8008C83.2648 69.5537 82.8394 68.3983 82.4153 67.312C82.0881 66.474 81.7557 65.6787 81.422 64.9205C81.2706 64.5762 81.12 64.2387 80.9651 63.9102C80.7863 63.5309 80.6041 63.1635 80.4228 62.8042C80.2342 62.4296 80.0439 62.067 79.8592 61.7094C79.8344 61.6557 79.7704 61.6318 79.7162 61.6565C79.662 61.6813 79.6386 61.7453 79.6633 61.7994Z" fill="black"></path>
<path fill-rule="evenodd" clip-rule="evenodd" d="M57.126 115.823C57.8197 115.529 58.8723 115.146 59.9744 114.766C62.205 113.999 64.634 113.243 64.634 113.243C64.7539 113.203 64.8832 113.268 64.9229 113.388C64.9621 113.508 64.8969 113.637 64.777 113.677C64.777 113.677 62.3812 114.509 60.1801 115.338C58.9811 115.789 57.8402 116.239 57.1849 116.554L56.7868 116.479C55.3455 114.994 53.9797 113.433 52.7032 111.799C51.8537 110.712 51.0443 109.591 50.2703 108.447C45.699 101.691 42.3599 94.0913 40.1617 86.6247C38.0425 79.423 36.9775 72.3407 36.9186 66.2462C36.8998 64.2942 36.9882 62.4429 37.1759 60.7226C37.5236 57.5349 38.2161 54.7949 39.2119 52.6748C39.2461 52.5997 39.3118 52.5438 39.3911 52.522C40.1331 52.3288 41.0581 52.0949 41.9166 51.888C42.5527 51.7353 43.1522 51.597 43.613 51.5015C43.7291 51.4759 43.8443 51.5488 43.8703 51.6653C43.8959 51.7813 43.8225 51.8965 43.7065 51.9221C43.2525 52.0301 42.6624 52.1845 42.0361 52.3544C41.2361 52.5715 40.3776 52.8143 39.6681 53.0204C38.7772 55.0931 38.2033 57.741 37.9311 60.7972C37.7801 62.4932 37.7242 64.3143 37.76 66.2343C37.8722 72.2579 38.9282 79.2519 41.0283 86.3695C43.206 93.7513 46.4994 101.262 50.9854 107.966C51.7436 109.099 52.5363 110.209 53.3585 111.295C54.5459 112.863 55.7965 114.38 57.126 115.823Z" fill="black"></path>
<path fill-rule="evenodd" clip-rule="evenodd" d="M56.4854 115.401C53.3118 116.756 43.4358 120.117 34.102 122.746C28.1739 124.417 22.4677 125.802 18.8333 126.128C18.163 126.189 17.2982 125.81 16.3032 125.096C14.0653 123.491 11.2929 120.186 8.82416 115.608C5.77818 109.959 3.20368 102.377 2.69168 93.6241C2.14512 84.3723 2.61872 77.1659 3.57403 71.7963C4.53744 66.3836 5.98256 62.8568 7.37733 61.008C7.76688 60.4917 8.14789 60.112 8.51227 59.8701C8.81221 59.6708 9.09168 59.5672 9.34853 59.5812C11.2933 59.6802 17.5653 59.2617 24.2665 58.0815C29.3899 57.1791 34.7621 55.8278 38.6439 53.9663C38.7582 53.9125 38.8073 53.776 38.7535 53.6617C38.6998 53.5477 38.5637 53.4982 38.4493 53.552C35.3159 54.9916 31.2199 56.0736 27.0778 56.8719C24.0425 57.4573 20.982 57.8869 18.2543 58.1886C14.102 58.6477 10.7241 58.8085 9.39632 58.7288C8.75419 58.6921 7.97936 59.0449 7.18875 59.8927C5.93307 61.2393 4.55664 63.8944 3.48613 68.0254C2.02565 73.6595 1.11429 82.0768 1.78971 93.677C2.31408 102.579 4.93381 110.29 8.03696 116.033C10.5914 120.759 13.4782 124.156 15.7933 125.808C17.0102 126.678 18.0952 127.069 18.9135 126.992C22.582 126.64 28.3459 125.238 34.3158 123.49C43.6504 120.757 53.4949 117.202 56.6573 115.796C56.7666 115.748 56.8165 115.621 56.7691 115.512C56.7213 115.403 56.5942 115.353 56.4854 115.401Z" fill="black"></path>
<path fill-rule="evenodd" clip-rule="evenodd" d="M92.9199 61.3362C90.4512 56.7048 86.5438 51.2951 82.8693 52.1185C79.1949 52.942 78.2216 66.8808 73.8863 66.6772C69.5509 66.4737 70.2617 47.0766 79.124 43.5583C87.9868 40.0404 93.4925 50.2476 93.4925 50.2476C89.8078 41.9775 76.0593 30.8582 77.9341 28.7069C85.4967 20.0311 97.3828 35.8118 101.292 46.7549C105.201 57.6976 106.143 64.8797 106.143 64.8797C106.143 64.8797 113.963 71.9056 121.951 73.5368C129.939 75.1679 143.211 76.3293 149.304 82.7916C155.396 89.2543 157.785 100.635 151.991 109.719C152.291 113.242 152.073 115.322 156.606 116.504C155.95 117.484 155.233 118.234 155.233 118.234C155.233 118.234 156.937 118.39 157.917 118.202C157.283 120.682 154.927 125.575 148.383 124.48C148.148 125.66 148.263 126.582 145.189 126.704C142.114 126.825 134.504 127.511 131.08 127.204C130.141 127.985 122.212 129.79 119.311 127.098C116.147 126.856 111.559 127.104 112.43 125.064C114.616 119.945 119.135 106.222 111.146 96.9394C102.768 87.2059 87.1061 94.2911 81.8223 90.1128C78.8134 87.7332 80.9229 81.5231 83.9586 76.0055C87.5789 69.4246 91.7128 66.6534 91.7128 66.6534C91.1659 66.2809 90.6167 66.158 90.1337 65.9878C90.8774 65.4028 91.8571 64.8541 92.8213 64.4505C91.9475 63.447 90.9346 63.1103 90.0215 62.7792C90.0215 62.7792 91.7777 61.6929 92.9199 61.3362Z" fill="white"></path>
<path fill-rule="evenodd" clip-rule="evenodd" d="M96.985 60.9453C96.4901 58.887 95.8287 56.0825 94.5078 52.781C94.4626 52.6709 94.5155 52.545 94.6255 52.4998C94.736 52.455 94.8619 52.5079 94.9067 52.618C96.3685 56.1312 97.0725 59.0876 97.6101 61.1786C99.0304 61.8114 99.8535 62.9237 100.023 63.7071C100.153 64.3074 99.9414 64.7486 99.472 64.8847C98.8474 65.066 98.3943 64.8505 98.0265 64.246C97.7278 63.7544 97.4851 62.9621 97.2205 61.91L97.1723 61.7154C96.7282 61.5456 96.2234 61.4282 95.6623 61.3916C94.3648 61.3066 92.7738 61.6548 90.9229 62.7518C91.4055 62.8938 91.7989 63.0722 92.1163 63.2548C92.9816 63.7523 93.3016 64.2929 93.3016 64.2929C93.3745 64.4119 93.3788 64.5608 93.3135 64.6841C93.2483 64.8074 93.1224 64.8868 92.9829 64.8932C92.9829 64.8932 92.3864 64.9346 91.5736 65.4167C91.3603 65.5434 91.1328 65.7005 90.8982 65.8933L90.9801 65.9193C91.4644 66.0772 91.8159 66.2701 91.8159 66.2701C91.9392 66.3379 92.0203 66.4638 92.0306 66.6046C92.0408 66.7449 91.9789 66.8815 91.8667 66.9664C88.985 69.162 86.4387 72.6897 84.4935 76.2566C82.0355 80.7643 80.5293 85.3365 80.6253 87.3879C80.6731 88.4269 81.3955 89.3408 82.4007 90.0252C83.3201 90.6506 84.482 91.0811 85.6536 91.2249C86.8709 91.3755 89.6677 91.0389 93.04 90.9608C95.3803 90.9066 97.9924 90.9741 100.549 91.3781C103.958 91.9166 107.266 93.0587 109.717 95.3022C109.811 95.3858 109.819 95.5309 109.735 95.6247C109.651 95.719 109.506 95.7275 109.412 95.6435C106.986 93.5366 103.753 92.5357 100.445 92.0881C97.9258 91.7476 95.362 91.7352 93.0648 91.8146C89.6327 91.9336 86.7864 92.2545 85.5465 92.1064C83.9473 91.9136 82.3661 91.2403 81.2662 90.2807C80.3578 89.4884 79.7771 88.5002 79.7272 87.4297C79.629 85.2943 81.1429 80.5147 83.7144 75.8299C85.6032 72.3889 88.0579 68.999 90.8141 66.7364C90.7838 66.7253 90.7527 66.7146 90.7207 66.704C90.5039 66.6314 90.2539 66.5657 90.0013 66.5406C89.8443 66.5252 89.7103 66.4219 89.6557 66.2743C89.6011 66.1263 89.6361 65.9607 89.7453 65.8472C90.2428 65.3357 90.7301 64.976 91.1657 64.7225C91.5599 64.4934 91.9145 64.3492 92.2012 64.2583C92.0182 64.1064 91.7699 63.9345 91.4443 63.7749C91.0441 63.5782 90.5334 63.4007 89.8917 63.2962C89.7385 63.2719 89.6156 63.1567 89.5823 63.0048C89.5486 62.8533 89.6113 62.6967 89.7402 62.6105C92.7939 60.5864 95.2506 60.4158 96.985 60.9453ZM97.8345 62.0298C97.9079 62.2999 97.98 62.55 98.0521 62.7791C98.2053 63.2663 98.3567 63.6554 98.5312 63.9345C98.7331 64.257 98.9639 64.4017 99.2984 64.2997C99.3871 64.2728 99.4268 64.1973 99.4371 64.1039C99.452 63.9742 99.4196 63.8189 99.3551 63.649C99.1525 63.1187 98.6332 62.4906 97.8345 62.0298Z" fill="black"></path>
<path fill-rule="evenodd" clip-rule="evenodd" d="M111.129 97.3872C112.223 98.951 113.695 101.494 114.602 104.746C115.255 107.088 115.618 109.8 115.303 112.789C115.075 115.142 114.67 117.121 114.233 118.776C113.492 121.577 112.64 123.451 112.293 124.601C112.151 125.068 112.092 125.436 112.122 125.71C112.153 125.981 112.256 126.189 112.431 126.343C112.579 126.472 112.803 126.594 113.094 126.687C113.467 126.807 113.96 126.896 114.507 126.954C116.454 127.16 119.095 127.026 119.095 127.026C119.221 127.023 119.322 126.919 119.319 126.793C119.317 126.666 119.213 126.566 119.087 126.568C119.087 126.568 117.026 126.532 115.237 126.304C114.59 126.222 113.981 126.114 113.524 125.971C113.289 125.898 113.101 125.822 112.994 125.721C112.972 125.7 112.973 125.668 112.969 125.633C112.964 125.583 112.967 125.526 112.974 125.464C112.999 125.237 113.084 124.954 113.203 124.607C113.638 123.339 114.544 121.32 115.273 118.334C115.652 116.783 115.977 114.971 116.171 112.872C116.431 109.766 116.012 106.96 115.27 104.55C114.254 101.247 112.648 98.698 111.478 97.1347C111.408 97.0382 111.273 97.0165 111.177 97.0864C111.08 97.156 111.059 97.2908 111.129 97.3872Z" fill="black"></path>
<path fill-rule="evenodd" clip-rule="evenodd" d="M107.295 66.2103C109.043 67.7088 112.175 69.9692 116.161 71.8355C119.12 73.2209 122.548 74.3865 126.229 74.8678C132.167 75.6375 139.813 76.862 145.81 80.6197C149.486 82.9228 152.541 86.183 154.169 90.9105C155.545 94.89 155.363 98.7287 154.484 102.236C153.395 106.579 151.239 110.418 149.593 113.399C148.438 115.489 147.539 117.179 147.363 118.341C147.183 119.537 147.168 120.531 147.233 121.374C147.318 122.481 147.537 123.328 147.686 124.039C147.809 124.629 147.894 125.111 147.746 125.581C147.726 125.644 147.655 125.687 147.568 125.741C147.41 125.841 147.196 125.931 146.937 126.016C145.833 126.379 143.975 126.626 141.861 126.774C138.614 126.999 134.774 126.985 132.097 126.742C131.972 126.73 131.859 126.821 131.847 126.947C131.834 127.072 131.925 127.184 132.051 127.197C135.213 127.555 140 127.636 143.545 127.341C145.249 127.199 146.671 126.964 147.507 126.643C148.083 126.421 148.41 126.117 148.507 125.827C148.683 125.294 148.654 124.746 148.538 124.099C148.383 123.23 148.068 122.156 148.057 120.603C148.052 119.978 148.096 119.273 148.221 118.472C148.39 117.377 149.274 115.798 150.368 113.828C152.052 110.794 154.247 106.88 155.357 102.455C156.276 98.7897 156.451 94.7769 155.009 90.6199C153.291 85.6928 150.102 82.2892 146.253 79.9093C140.135 76.1273 132.353 74.9416 126.312 74.2103C122.692 73.776 119.313 72.6632 116.391 71.335C112.435 69.5362 109.317 67.341 107.573 65.8818C107.483 65.8045 107.347 65.8161 107.269 65.9069C107.193 65.9974 107.204 66.1335 107.295 66.2103Z" fill="black"></path>
<path fill-rule="evenodd" clip-rule="evenodd" d="M119.145 102.563C120.261 105.589 120.697 108.83 120.737 112.036C120.802 117.282 119.796 122.436 118.873 126.405C118.761 126.895 118.951 127.333 119.421 127.69C120.151 128.246 121.713 128.609 123.471 128.747C125.639 128.918 128.104 128.773 129.565 128.378C130.041 128.25 130.418 128.09 130.668 127.915C130.922 127.737 131.066 127.529 131.121 127.321C131.259 126.799 131.35 125.48 131.315 123.592C131.273 121.422 131.084 118.479 130.619 115.135C130.459 113.982 130.264 112.781 130.029 111.549C129.527 108.906 128.846 106.119 127.984 103.33C127.949 103.208 127.822 103.138 127.701 103.173C127.58 103.208 127.509 103.335 127.545 103.456C128.294 106.255 128.842 109.047 129.262 111.683C129.458 112.91 129.625 114.103 129.769 115.248C130.185 118.558 130.381 121.464 130.416 123.608C130.445 125.372 130.38 126.605 130.252 127.092C130.248 127.106 130.232 127.114 130.219 127.126C130.177 127.165 130.124 127.201 130.062 127.237C129.877 127.341 129.628 127.432 129.331 127.513C127.943 127.891 125.599 128.023 123.539 127.869C122.232 127.772 121.039 127.565 120.292 127.213C120.087 127.117 119.92 127.013 119.807 126.892C119.723 126.803 119.675 126.705 119.7 126.591C120.573 122.56 121.523 117.33 121.363 112.022C121.265 108.759 120.746 105.468 119.548 102.41C119.506 102.298 119.381 102.242 119.27 102.285C119.159 102.327 119.103 102.452 119.145 102.563Z" fill="black"></path>
<path fill-rule="evenodd" clip-rule="evenodd" d="M155.839 116.775C155.435 116.706 154.956 116.572 154.471 116.353C154.063 116.169 153.649 115.93 153.274 115.627C152.412 114.931 151.732 113.93 151.719 112.584C151.712 112.457 151.808 112.349 151.934 112.342C152.06 112.334 152.169 112.431 152.176 112.557C152.273 113.454 152.708 114.127 153.264 114.637C153.724 115.059 154.277 115.355 154.806 115.568C155.491 115.843 156.139 115.97 156.508 115.944C156.657 115.935 156.801 116.002 156.891 116.122C156.981 116.241 157.004 116.398 156.953 116.538C156.835 116.869 156.642 117.201 156.427 117.5C156.354 117.6 156.281 117.696 156.206 117.787C156.385 117.768 156.572 117.744 156.759 117.715C157.137 117.655 157.511 117.575 157.786 117.457C157.938 117.392 158.113 117.416 158.241 117.521C158.37 117.625 158.429 117.792 158.396 117.954C158.203 118.85 157.945 119.638 157.628 120.325C157.017 121.646 156.209 122.607 155.329 123.292C153.238 124.918 150.739 124.991 149.416 124.692C149.3 124.669 149.224 124.555 149.247 124.438C149.27 124.322 149.384 124.246 149.501 124.269C150.729 124.485 153.015 124.306 154.873 122.731C155.527 122.176 156.123 121.445 156.609 120.497C156.906 119.918 157.161 119.26 157.359 118.509C157.209 118.542 157.055 118.571 156.901 118.596C156.009 118.741 155.094 118.768 155.094 118.768C154.904 118.773 154.731 118.658 154.662 118.481C154.594 118.304 154.643 118.103 154.787 117.978C154.787 117.978 155.185 117.632 155.565 117.153C155.659 117.035 155.754 116.907 155.839 116.775Z" fill="black"></path>
<path fill-rule="evenodd" clip-rule="evenodd" d="M106.908 69.0686C106.795 66.1732 106.41 63.0526 105.756 59.8637C105.492 58.5799 105.182 57.2862 104.833 55.9921C103.077 49.4884 100.374 42.9656 97.2205 37.6536C94.5803 33.2064 91.6013 29.6126 88.5524 27.574C85.6404 25.6271 82.655 25.0818 79.8061 26.4647C78.4067 27.1448 77.7283 27.9687 77.5525 28.886C77.3767 29.8042 77.7133 30.858 78.466 32.0331C79.743 34.0273 82.2185 36.4474 84.9389 39.3163C86.5073 40.97 88.1598 42.7736 89.698 44.7443C91.152 46.6076 92.5097 48.6155 93.5968 50.7868C93.6519 50.9003 93.7884 50.9481 93.9023 50.893C94.0158 50.838 94.0636 50.701 94.0086 50.5875C92.9637 48.3548 91.647 46.2752 90.2155 44.3497C88.7089 42.3239 87.0808 40.4653 85.52 38.7727C82.8837 35.9136 80.4478 33.5328 79.202 31.5646C78.6029 30.6178 78.2748 29.7897 78.4178 29.0528C78.5534 28.3544 79.126 27.7801 80.1935 27.2642C82.7574 26.0243 85.4339 26.57 88.0515 28.3232C91.0074 30.3025 93.8784 33.8037 96.4453 38.1148C99.568 43.3598 102.21 49.8097 104.011 56.2187C104.37 57.4948 104.697 58.7689 104.994 60.0314C105.73 63.1682 106.258 66.2334 106.477 69.0934C106.484 69.212 106.586 69.3028 106.704 69.296C106.824 69.2892 106.914 69.1872 106.908 69.0686Z" fill="black"></path>
<path fill-rule="evenodd" clip-rule="evenodd" d="M90.8561 42.4131C88.9305 39.8565 87.2085 37.9758 86.3338 36.7645C86.077 36.409 85.8948 36.1159 85.8107 35.8813C85.7476 35.7038 85.7416 35.5745 85.8773 35.5071C86.1226 35.3846 86.4435 35.3885 86.8245 35.4938C87.2435 35.6095 87.7273 35.8501 88.2623 36.2094C90.2097 37.5171 92.7901 40.3809 95.293 44.7103C97.0841 47.8079 98.8181 51.6581 100.279 56.2192C100.77 57.753 101.236 59.365 101.658 61.0584C101.923 62.1187 102.175 63.2093 102.405 64.3322C102.417 64.3941 102.477 64.4351 102.539 64.4231C102.601 64.4112 102.641 64.3514 102.63 64.2891C102.43 63.1563 102.213 62.0538 101.972 60.9838C101.588 59.272 101.156 57.6404 100.679 56.0933C99.2575 51.4815 97.4877 47.6061 95.6846 44.4837C93.1383 40.0754 90.4904 37.1736 88.5034 35.8493C87.921 35.4614 87.3919 35.2071 86.9358 35.0847C86.4337 34.9498 86.0121 34.9737 85.6908 35.138C85.419 35.2775 85.3162 35.499 85.373 35.8109C85.4254 36.1001 85.649 36.4978 86.0219 36.9944C86.4622 37.5815 87.1112 38.3235 87.8937 39.2225C88.7078 40.1582 89.6686 41.2628 90.6854 42.5449C90.7217 42.5919 90.7895 42.6004 90.8364 42.5641C90.8834 42.5279 90.8923 42.46 90.8561 42.4131Z" fill="black"></path>
<path fill-rule="evenodd" clip-rule="evenodd" d="M90.003 46.6294C88.1402 44.7209 84.7218 42.6644 81.2227 42.8867C78.5189 43.0586 75.7571 44.5729 73.6152 48.5528C71.4605 52.5793 70.5138 56.7811 70.5082 60.1334C70.5039 62.5436 70.9942 64.5229 71.8334 65.721C72.4384 66.585 73.2265 67.0672 74.1468 67.0953C75.3615 67.1329 76.3561 66.1716 77.1595 64.6125C78.4766 62.0572 79.3816 57.8789 80.6757 55.0859C81.0695 54.236 81.4949 53.5188 81.9919 53.0392C82.3627 52.6817 82.7698 52.4615 83.2391 52.4577C84.9739 52.4312 86.5598 53.3925 87.9256 54.658C90.8082 57.3285 92.7047 61.3959 92.7047 61.3959C92.7559 61.5115 92.8911 61.5636 93.0063 61.5124C93.122 61.4612 93.174 61.3259 93.1228 61.2103C93.1228 61.2103 91.3189 56.9552 88.4333 54.1246C87.5715 53.2794 86.6123 52.5618 85.5806 52.1112C84.8344 51.7857 84.0489 51.603 83.2352 51.6009C82.0158 51.6022 81.0204 52.5434 80.211 54.0427C78.8367 56.5882 77.9194 60.7674 76.6629 63.5693C76.2772 64.4295 75.8642 65.1557 75.3824 65.6382C75.0232 65.9988 74.6298 66.2164 74.1733 66.2031C73.3242 66.1784 72.6701 65.5636 72.1995 64.5878C71.6683 63.487 71.3837 61.9408 71.3735 60.1317C71.3551 56.8886 72.2268 52.8161 74.2706 48.8993C76.2123 45.1574 78.7467 43.6828 81.2653 43.4819C84.6014 43.2156 87.8876 45.1425 89.6971 46.9332C89.7812 47.0172 89.9177 47.0177 90.0022 46.934C90.0862 46.85 90.0867 46.7134 90.003 46.6294Z" fill="black"></path>
<path fill-rule="evenodd" clip-rule="evenodd" d="M94.166 59.488C93.2901 57.7898 92.441 56.3089 91.6124 55.0293C90.5184 53.3397 89.4654 51.9957 88.4589 50.9517C86.1903 48.599 84.1483 47.7521 82.3968 47.8438C80.9662 47.9185 79.7144 48.6225 78.6609 49.69C77.2918 51.0775 76.2571 53.0837 75.5945 55.0814C74.9105 57.1443 74.623 59.1966 74.7561 60.5436C74.8188 61.1793 74.9801 61.6657 75.2207 61.9481C75.4673 62.237 75.696 62.2886 75.8782 62.2246C75.9738 62.1909 76.0672 62.1205 76.1513 62.0066C76.24 61.8854 76.3241 61.7054 76.4017 61.4741C76.5451 61.0483 76.6774 60.4335 76.8267 59.706C76.9854 58.932 77.1655 58.0284 77.4087 57.091C77.6796 56.0448 78.0282 54.9564 78.518 53.9601C79.0146 52.9493 79.6538 52.032 80.5054 51.3549C80.5553 51.3165 80.5647 51.2444 80.5259 51.1944C80.4875 51.1445 80.4154 51.1356 80.3655 51.174C79.3679 51.9249 78.6268 52.9856 78.0645 54.1551C77.442 55.4496 77.0358 56.8768 76.7341 58.1555C76.4832 59.2205 76.3066 60.1817 76.1265 60.8729C76.0408 61.2032 75.9567 61.469 75.8616 61.6486C75.833 61.7028 75.804 61.748 75.7728 61.7813C75.7592 61.7958 75.7498 61.8112 75.734 61.812C75.7144 61.8129 75.6969 61.7975 75.6738 61.7805C75.6359 61.7527 75.597 61.7135 75.5548 61.664C75.2787 61.3384 75.1648 60.6831 75.1674 59.84C75.1712 58.5745 75.4635 56.9032 76.0224 55.2234C76.6646 53.2924 77.6587 51.3493 78.9822 50.0066C79.9533 49.0218 81.1015 48.3618 82.4207 48.2897C84.0796 48.1984 85.9872 49.0368 88.1581 51.2444C89.1608 52.2641 90.2181 53.5722 91.33 55.2162C92.1794 56.4727 93.0639 57.9213 93.9757 59.5891C94.0034 59.6416 94.0687 59.6616 94.1212 59.6339C94.1737 59.6057 94.1937 59.5405 94.166 59.488Z" fill="black"></path>
<path fill-rule="evenodd" clip-rule="evenodd" d="M88.4101 73.5822C86.5413 73.8599 89.743 79.9425 91.5401 79.3042C93.3372 78.6659 90.0352 73.3407 88.4101 73.5822Z" fill="black"></path>
<path fill-rule="evenodd" clip-rule="evenodd" d="M93.5252 72.8608C91.8303 72.9381 94.201 78.3958 95.861 78.0051C97.5211 77.6144 94.9991 72.7936 93.5252 72.8608Z" fill="black"></path>
<path fill-rule="evenodd" clip-rule="evenodd" d="M100.114 85.4031C98.8271 86.509 102.6 87.9045 104.254 86.472C105.563 85.3381 101.635 84.096 100.114 85.4031Z" fill="black"></path>
<defs>
<linearGradient id="paint0_linear_56_2729" x1="58.4529" y1="80.5753" x2="135.693" y2="52.1765" gradientUnits="userSpaceOnUse">
<stop stop-color="#E4E6FF"></stop>
<stop offset="0.45" stop-color="#FFEAFF"></stop>
<stop offset="1" stop-color="white" stop-opacity="0"></stop>
</linearGradient>
</defs>
</svg>
