<svg width="27" height="24" viewBox="0 0 27 24" fill="none" xmlns="http://www.w3.org/2000/svg">
<path fill-rule="evenodd" clip-rule="evenodd" d="M5.20997 21.5525L5.25118 21.5319L22.6487 12.8354L22.6564 12.8316L22.8354 12.7421L23.4314 12.4442C23.8 12.26 23.8 11.734 23.4314 11.5497L22.8354 11.2518L22.6564 11.1623L22.6487 11.1585L5.25118 2.46208L5.20997 2.44148L4.88071 2.27689L4.43345 2.05332C4.03501 1.85416 3.59466 2.23614 3.73556 2.65871L3.89372 3.13307L4.01016 3.48228L4.02473 3.52598L6.79643 11.8388C6.83066 11.9415 6.83066 12.0525 6.79643 12.1551L4.02473 20.468L4.01016 20.5117L3.89372 20.8609L3.73556 21.3352C3.59466 21.7578 4.035 22.1398 4.43345 21.9406L4.88071 21.717L5.20997 21.5525ZM5.92215 4.47443L20.9713 11.997L5.92215 19.5195L7.9517 13.4325L9.20821 13.2443L12.5079 12.7499L13.3862 12.6184L14.1002 12.5114L14.2535 12.4884C14.8206 12.4035 14.8219 11.5866 14.2551 11.4999L14.1018 11.4765L13.3882 11.3674L12.5103 11.2332L9.20801 10.7284L7.94289 10.535L5.92215 4.47443Z" fill="#3369F3"></path>
</svg>
